<svg xmlns="http://www.w3.org/2000/svg" viewBox="0 0 96.77 96.77"><defs><style>.cls-1{fill:none;stroke:#fff;stroke-miterlimit:10;stroke-width:9px;}.cls-2{fill:#fff;}</style></defs><title>add-white</title><g id="Capa_2" data-name="Capa 2"><g id="Capa_1-2" data-name="Capa 1"><rect class="cls-1" x="4.5" y="4.5" width="87.77" height="87.77" rx="43.89"/><path class="cls-2" d="M75.5,43.11v10.6a2.49,2.49,0,0,1-2.56,2.41l-13.62,0a2.48,2.48,0,0,0-2.55,2.41V71.56A2.49,2.49,0,0,1,54.21,74H42.56A2.48,2.48,0,0,1,40,71.56V58.5a2.48,2.48,0,0,0-2.55-2.41l-13.64,0a2.48,2.48,0,0,1-2.55-2.41V43.06a2.48,2.48,0,0,1,2.55-2.41l13.62,0A2.49,2.49,0,0,0,40,38.26v-13a2.48,2.48,0,0,1,2.55-2.41H54.21a2.49,2.49,0,0,1,2.56,2.41V38.28a2.49,2.49,0,0,0,2.55,2.41H73A2.48,2.48,0,0,1,75.5,43.11Z"/></g></g></svg>