<svg xmlns="http://www.w3.org/2000/svg" viewBox="0 0 65.58 89.41"><defs><style>.cls-1{fill:none;stroke:#fff;stroke-miterlimit:10;stroke-width:6px;}.cls-2{font-size:21px;fill:#fff;font-family:MyriadPro-Regular, Myriad Pro;}</style></defs><title>pdf-white</title><g id="Capa_2" data-name="Capa 2"><g id="Capa_1-2" data-name="Capa 1"><path class="cls-1" d="M55.88,86.41H9.7A6.7,6.7,0,0,1,3,79.71V9.7A6.7,6.7,0,0,1,9.7,3l22.67.25A2.29,2.29,0,0,1,34,3.93L46.4,16.44,61.65,31.62a2.24,2.24,0,0,1,.67,1.6l.26,46.49A6.7,6.7,0,0,1,55.88,86.41Z"/><path class="cls-1" d="M32.33,5.23a1.4,1.4,0,0,1,2.39-1L48.37,17.88,62,31.53a1.4,1.4,0,0,1-1,2.39H38.13a5.8,5.8,0,0,1-5.8-5.8Z"/><text class="cls-2" transform="translate(14.13 55.5)">PDF</text></g></g></svg>