<svg xmlns="http://www.w3.org/2000/svg" viewBox="0 0 85.52 82.59"><defs><style>.cls-1{fill:#575756;}.cls-2{fill:#fff;}</style></defs><title>pencil-grey</title><g id="Capa_2" data-name="Capa 2"><g id="Capa_1-2" data-name="Capa 1"><rect class="cls-1" x="21.66" y="16.53" width="31.34" height="63.33" transform="translate(45.01 -12.28) rotate(45)"/><path class="cls-1" d="M59.28,5.72H79.48A5.57,5.57,0,0,1,85,11.29V26.56a0,0,0,0,1,0,0H53.71a0,0,0,0,1,0,0V11.29a5.57,5.57,0,0,1,5.57-5.57Z" transform="translate(31.73 -44.33) rotate(45)"/><polygon class="cls-1" points="0 82.58 0 82.58 3.83 59.48 25.99 81.64 0 82.58"/><rect class="cls-2" x="32.94" y="15.97" width="1.82" height="45.73" rx="0.63" transform="translate(37.37 -12.56) rotate(45)"/><rect class="cls-2" x="6.98" y="64.44" width="20.52" height="7.56" transform="translate(53.29 7.79) rotate(45)"/><polygon class="cls-2" points="14.95 77.69 14.95 77.69 14.51 70.79 21.85 78.13 14.95 77.69"/><polygon class="cls-2" points="7.63 70.32 7.63 70.32 7.32 63.61 14.54 70.83 7.63 70.32"/></g></g></svg>