<svg xmlns="http://www.w3.org/2000/svg" viewBox="0 0 84.37 87.86"><defs><style>.cls-1{fill:#fff;}.cls-1,.cls-2{stroke:#fff;stroke-miterlimit:10;}.cls-2{fill:none;stroke-width:6px;}</style></defs><title>trash-white</title><g id="Capa_2" data-name="Capa 2"><g id="Capa_1-2" data-name="Capa 1"><rect class="cls-1" x="39.75" y="28.19" width="4.87" height="43.49" rx="0.68"/><rect class="cls-1" x="24.31" y="28.19" width="4.87" height="43.49" rx="0.68"/><rect class="cls-1" x="54.67" y="28.19" width="4.87" height="43.49" rx="0.68"/><path class="cls-2" d="M11,16H73.38a0,0,0,0,1,0,0V74.72A10.15,10.15,0,0,1,63.23,84.86H21.14A10.15,10.15,0,0,1,11,74.72V16A0,0,0,0,1,11,16Z"/><rect class="cls-1" x="39.75" y="-26.21" width="4.87" height="83.37" rx="0.68" transform="translate(26.71 57.66) rotate(-90)"/><path class="cls-2" d="M60.07,16H24.3L29,5.91A4.65,4.65,0,0,1,33.06,3H51.23a4.64,4.64,0,0,1,4.09,2.88Z"/></g></g></svg>